# xmcd
#
# Track frame offsets: 
#        150
#        6142
#        8500
#        11436
#        17038
#        19352
#        25415
#        29980
#        36088
#        38122
#        42265
#        45858
#        50336
#        52002
#        55834
#        59382
#        60952
#        63524
#        65632
#        69865
#        70776
#        73162
#        79404
#        83557
#        84340
#        85114
#        85926
#        86984
#        88324
#        89645
#        90956
#        91886
#        93162
#        95996
#        103141
#        107719
#        108681
#        110514
#        111252
#        115594
#        119283
#        120399
#        122283
#        125716
#        126928
#        128652
#        131003
#        131850
#        132684
#        133480
#        135678
#        138343
#        140484
#        142304
#        149558
#        151762
#        152859
#        153949
#        155052
#        156123
#        157181
#        161727
#        164437
#        168232
#        176919
#        192678
#        200584
#        208051
#
# Disc length: 2871 seconds
#
# Revision: 0
# Processed by: cddbd v1.5.2PL0 Copyright (c) Steve Scherf et al.
# Submitted via: ExactAudioCopy v1.0b3
#
DISCID=e40b3544
DTITLE=Tricia Woods - Easy Soloing for Blues Keyboard
DYEAR=2007
DGENRE=Blues
TTITLE0=Listening ex1
TTITLE1=Simple Blues in C
TTITLE2=Feelin' The Shuffle Blues
TTITLE3=Listening ex2
TTITLE4=Live at the Two-Note
TTITLE5=Two Is Enough
TTITLE6=Listening ex3
TTITLE7=Three's Company
TTITLE8=Ex02 - Three notes
TTITLE9=Listening ex4
TTITLE10=2 x 3
TTITLE11=Listening ex5
TTITLE12=Ex03 - Combining Two-Note and Three-Note ex1
TTITLE13=Tag It On (in C)
TTITLE14=Ex04 - Combining Two-Note and Three-Note ex2
TTITLE15=Ex05 - Blues Scale ex1
TTITLE16=Flat City Blues (in G)
TTITLE17=Ex06 - Blues Scale ex2
TTITLE18=Listening ex6
TTITLE19=Ex07 - Blues Scale ex3
TTITLE20=Going Downstairs
TTITLE21=Exercise - Descending Bb Blues Scale
TTITLE22=It's All Downhill (in Dm)
TTITLE23=Ex08 - Clusters ex1
TTITLE24=Ex09 - Clusters ex2
TTITLE25=Ex10 - Clusters ex3
TTITLE26=Ex11 - Rhythm ex1
TTITLE27=Ex12 - Rhythm ex2
TTITLE28=Ex13 - Rhythm ex3
TTITLE29=Ex14 - Rhythm ex4
TTITLE30=Ex15 - Root ex1
TTITLE31=Ex16 - Root ex2
TTITLE32=Ex17 - Root ex3
TTITLE33=Listening ex7
TTITLE34=Over The Top Blues (in F)
TTITLE35=Ex18 - Octaves
TTITLE36=Ex19 - Trills
TTITLE37=Ex20 - Repeat It Over Octaves
TTITLE38=Chicago Style (in F)
TTITLE39=Triad Blues (in A)
TTITLE40=Ex21 - Triad
TTITLE41=Passing Tone Blues (in C)
TTITLE42=Listening ex8
TTITLE43=Ex22 - Pull-off ex1
TTITLE44=Ex23 - Pull-off ex2
TTITLE45=The On-Again, Off-Again Blues (in G)
TTITLE46=Ex24 - Approach Tones ex1
TTITLE47=Ex25 - Approach Tones ex2
TTITLE48=Ex26 - Approach Tones ex3
TTITLE49=Approachin', Enroachin' Blues (in F)
TTITLE50=Ex27 - Chord-Tone Exercise
TTITLE51=Makin' Changes Blues
TTITLE52=Ex30 - Changes
TTITLE53=Listening ex09
TTITLE54=High Five Blues (in C)
TTITLE55=Ex32 - Turnarounds and Progressions ex1
TTITLE56=Ex33 - Turnarounds and Progressions ex2
TTITLE57=Ex34 - Turnarounds and Progressions ex3
TTITLE58=Ex35 - Turnarounds and Progressions ex4
TTITLE59=Ex36 - Turnarounds and Progressions ex5
TTITLE60=Ex37 - Turnarounds and Progressions ex6
TTITLE61=Together Forever Blues (in G)
TTITLE62=Hot Air Blues (in F)
TTITLE63=Listening ex10
TTITLE64=It's All About Me
TTITLE65=Blues in C - backing track
TTITLE66=Blues in F - backing track
TTITLE67=Blues in Gmin - backing track
EXTD=
EXTT0=
EXTT1=
EXTT2=
EXTT3=
EXTT4=
EXTT5=
EXTT6=
EXTT7=
EXTT8=
EXTT9=
EXTT10=
EXTT11=
EXTT12=
EXTT13=
EXTT14=
EXTT15=
EXTT16=
EXTT17=
EXTT18=
EXTT19=
EXTT20=
EXTT21=
EXTT22=
EXTT23=
EXTT24=
EXTT25=
EXTT26=
EXTT27=
EXTT28=
EXTT29=
EXTT30=
EXTT31=
EXTT32=
EXTT33=
EXTT34=
EXTT35=
EXTT36=
EXTT37=
EXTT38=
EXTT39=
EXTT40=
EXTT41=
EXTT42=
EXTT43=
EXTT44=
EXTT45=
EXTT46=
EXTT47=
EXTT48=
EXTT49=
EXTT50=
EXTT51=
EXTT52=
EXTT53=
EXTT54=
EXTT55=
EXTT56=
EXTT57=
EXTT58=
EXTT59=
EXTT60=
EXTT61=
EXTT62=
EXTT63=
EXTT64=
EXTT65=
EXTT66=
EXTT67=
PLAYORDER=
